<mxfile host="app.diagrams.net" modified="2023-08-22T14:33:38.089Z" agent="Mozilla/5.0 (Windows NT 10.0; Win64; x64) AppleWebKit/537.36 (KHTML, like Gecko) Chrome/116.0.0.0 Safari/537.36" version="21.6.8" etag="2ohNIBdY47UF8fGzc2zF" type="github">
  <diagram name="PÃ¡gina-1" id="nxrx_iFDAduGcQsbXAKK">
    <mxGraphModel>
      <root>
        <mxCell id="0" />
        <mxCell id="1" parent="0" />
      </root>
    </mxGraphModel>
  </diagram>
</mxfile>
